<svg xmlns="http://www.w3.org/2000/svg" xmlns:xlink="http://www.w3.org/1999/xlink" width="440" zoomAndPan="magnify" viewBox="0 0 330 112.499997" height="150" preserveAspectRatio="xMidYMid meet" version="1.0"><defs><clipPath id="45038bc37e"><path d="M 19 27.558594 L 74 27.558594 L 74 84.304688 L 19 84.304688 Z M 19 27.558594 " clip-rule="nonzero"/></clipPath><clipPath id="3adb716367"><path d="M 10 27.558594 L 65 27.558594 L 65 84.304688 L 10 84.304688 Z M 10 27.558594 " clip-rule="nonzero"/></clipPath><clipPath id="b14101731c"><path d="M 182 27.558594 L 191 27.558594 L 191 67 L 182 67 Z M 182 27.558594 " clip-rule="nonzero"/></clipPath><clipPath id="0348308755"><path d="M 190 27.558594 L 223 27.558594 L 223 67 L 190 67 Z M 190 27.558594 " clip-rule="nonzero"/></clipPath><clipPath id="b7ca75dccb"><path d="M 138 27.558594 L 174 27.558594 L 174 67 L 138 67 Z M 138 27.558594 " clip-rule="nonzero"/></clipPath><clipPath id="a80c0e3db6"><path d="M 224 27.558594 L 273 27.558594 L 273 67 L 224 67 Z M 224 27.558594 " clip-rule="nonzero"/></clipPath><clipPath id="9e6ae8c6b5"><path d="M 92 27.558594 L 133 27.558594 L 133 67 L 92 67 Z M 92 27.558594 " clip-rule="nonzero"/></clipPath><clipPath id="7f7cf29712"><path d="M 277 27.558594 L 320.476562 27.558594 L 320.476562 67 L 277 67 Z M 277 27.558594 " clip-rule="nonzero"/></clipPath><clipPath id="48907701e2"><path d="M 92 74 L 101 74 L 101 84.304688 L 92 84.304688 Z M 92 74 " clip-rule="nonzero"/></clipPath><clipPath id="2da9486fd9"><path d="M 100 74 L 110 74 L 110 84.304688 L 100 84.304688 Z M 100 74 " clip-rule="nonzero"/></clipPath><clipPath id="f81964191e"><path d="M 110 82 L 112 82 L 112 84.304688 L 110 84.304688 Z M 110 82 " clip-rule="nonzero"/></clipPath><clipPath id="dd8f07ba3d"><path d="M 117 74 L 127 74 L 127 84.304688 L 117 84.304688 Z M 117 74 " clip-rule="nonzero"/></clipPath><clipPath id="f35993720e"><path d="M 128 74 L 137 74 L 137 84.304688 L 128 84.304688 Z M 128 74 " clip-rule="nonzero"/></clipPath><clipPath id="3198236ac3"><path d="M 138 74 L 147 74 L 147 84.304688 L 138 84.304688 Z M 138 74 " clip-rule="nonzero"/></clipPath><clipPath id="91ee55893d"><path d="M 146 74 L 157 74 L 157 84.304688 L 146 84.304688 Z M 146 74 " clip-rule="nonzero"/></clipPath><clipPath id="a171680175"><path d="M 160 74 L 170 74 L 170 84.304688 L 160 84.304688 Z M 160 74 " clip-rule="nonzero"/></clipPath><clipPath id="f169942a98"><path d="M 171 74 L 181 74 L 181 84.304688 L 171 84.304688 Z M 171 74 " clip-rule="nonzero"/></clipPath><clipPath id="b05244d8f6"><path d="M 181 73 L 191 73 L 191 84.304688 L 181 84.304688 Z M 181 73 " clip-rule="nonzero"/></clipPath><clipPath id="0bfede264e"><path d="M 191 74 L 202 74 L 202 84.304688 L 191 84.304688 Z M 191 74 " clip-rule="nonzero"/></clipPath><clipPath id="6526af2e67"><path d="M 202 74 L 212 74 L 212 84.304688 L 202 84.304688 Z M 202 74 " clip-rule="nonzero"/></clipPath><clipPath id="243944d12d"><path d="M 212 74 L 223 74 L 223 84.304688 L 212 84.304688 Z M 212 74 " clip-rule="nonzero"/></clipPath><clipPath id="02a5e206a0"><path d="M 221 74 L 232 74 L 232 84.304688 L 221 84.304688 Z M 221 74 " clip-rule="nonzero"/></clipPath><clipPath id="801adb015c"><path d="M 230 74 L 241 74 L 241 84.304688 L 230 84.304688 Z M 230 74 " clip-rule="nonzero"/></clipPath><clipPath id="778c12a793"><path d="M 244 74 L 247 74 L 247 84.304688 L 244 84.304688 Z M 244 74 " clip-rule="nonzero"/></clipPath><clipPath id="35e99fda0e"><path d="M 248 74 L 258 74 L 258 84.304688 L 248 84.304688 Z M 248 74 " clip-rule="nonzero"/></clipPath><clipPath id="f70787925c"><path d="M 259 74 L 267 74 L 267 84.304688 L 259 84.304688 Z M 259 74 " clip-rule="nonzero"/></clipPath><clipPath id="d742b4b1c7"><path d="M 268 74 L 278 74 L 278 84.304688 L 268 84.304688 Z M 268 74 " clip-rule="nonzero"/></clipPath><clipPath id="416a30453c"><path d="M 278 74 L 289 74 L 289 84.304688 L 278 84.304688 Z M 278 74 " clip-rule="nonzero"/></clipPath><clipPath id="1978969b69"><path d="M 288 73 L 299 73 L 299 84.304688 L 288 84.304688 Z M 288 73 " clip-rule="nonzero"/></clipPath><clipPath id="8945336252"><path d="M 299 73 L 310 73 L 310 84.304688 L 299 84.304688 Z M 299 73 " clip-rule="nonzero"/></clipPath><clipPath id="1d49582f25"><path d="M 311 74 L 320.476562 74 L 320.476562 84.304688 L 311 84.304688 Z M 311 74 " clip-rule="nonzero"/></clipPath></defs><g clip-path="url(#45038bc37e)"><path fill="#f84701" d="M 73.859375 27.503906 L 73.859375 84.191406 L 64.765625 84.191406 L 64.765625 66.542969 L 53.605469 73.480469 L 44.992188 68.125 L 61.746094 57.703125 L 64.765625 59.601562 L 64.765625 55.863281 L 19.175781 27.503906 L 36.40625 27.503906 L 41.96875 30.957031 L 47.535156 27.503906 L 64.765625 27.503906 L 50.585938 36.3125 L 64.765625 45.152344 L 64.765625 27.503906 Z M 73.859375 27.503906 " fill-opacity="1" fill-rule="nonzero"/></g><g clip-path="url(#3adb716367)"><path fill="#f84701" d="M 10.050781 84.191406 L 10.050781 27.503906 L 19.140625 27.503906 L 19.140625 45.152344 L 30.300781 38.214844 L 38.917969 43.570312 L 22.164062 53.996094 L 19.140625 52.09375 L 19.140625 55.832031 L 64.734375 84.191406 L 47.503906 84.191406 L 41.9375 80.738281 L 36.375 84.191406 L 19.140625 84.191406 L 33.324219 75.382812 L 19.140625 66.542969 L 19.140625 84.191406 Z M 10.050781 84.191406 " fill-opacity="1" fill-rule="nonzero"/></g><g clip-path="url(#b14101731c)"><path fill="#141c4d" d="M 182.375 27.507812 L 190.957031 27.507812 L 190.957031 66.5625 L 182.375 66.5625 Z M 182.375 27.507812 " fill-opacity="1" fill-rule="nonzero"/></g><g clip-path="url(#0348308755)"><path fill="#141c4d" d="M 222.519531 66.5625 L 211.929688 66.5625 L 193.007812 47.703125 L 190.957031 47.703125 L 207.644531 27.507812 L 218.226562 27.507812 L 202.46875 46.582031 L 202.472656 46.582031 Z M 222.519531 66.5625 " fill-opacity="1" fill-rule="nonzero"/></g><g clip-path="url(#b7ca75dccb)"><path fill="#141c4d" d="M 147.1875 34.527344 L 147.1875 43.523438 L 173.640625 43.523438 L 173.640625 50.542969 L 147.1875 50.542969 L 147.1875 59.542969 L 173.644531 59.542969 L 173.644531 66.5625 L 138.605469 66.5625 L 138.605469 27.507812 L 173.644531 27.507812 L 173.644531 34.527344 Z M 147.1875 34.527344 " fill-opacity="1" fill-rule="nonzero"/></g><g clip-path="url(#a80c0e3db6)"><path fill="#141c4d" d="M 250.742188 27.507812 L 246.257812 27.507812 L 224.820312 66.5625 L 234.738281 66.5625 L 239.59375 57.722656 L 257.414062 57.722656 L 262.261719 66.5625 L 272.179688 66.5625 Z M 243.445312 50.699219 L 248.503906 41.484375 L 253.558594 50.699219 Z M 243.445312 50.699219 " fill-opacity="1" fill-rule="nonzero"/></g><g clip-path="url(#9e6ae8c6b5)"><path fill="#141c4d" d="M 132.324219 66.5625 L 121.734375 66.5625 L 101.476562 46.371094 L 120.496094 46.371094 C 121.230469 46.371094 121.832031 45.769531 121.832031 45.035156 L 121.832031 35.859375 C 121.832031 35.125 121.234375 34.527344 120.496094 34.527344 L 100.691406 34.527344 L 100.691406 66.5625 L 92.109375 66.5625 L 92.109375 27.507812 L 123.726562 27.507812 C 127.421875 27.507812 130.414062 30.488281 130.414062 34.167969 L 130.414062 46.730469 C 130.414062 50.40625 127.421875 53.386719 123.726562 53.386719 L 119.097656 53.386719 Z M 132.324219 66.5625 " fill-opacity="1" fill-rule="nonzero"/></g><g clip-path="url(#7f7cf29712)"><path fill="#141c4d" d="M 320.28125 27.507812 L 320.28125 66.5625 L 309.695312 66.5625 L 286.007812 37.894531 L 286.007812 66.5625 L 277.425781 66.5625 L 277.425781 27.507812 L 288.007812 27.507812 L 311.699219 56.175781 L 311.699219 27.507812 Z M 320.28125 27.507812 " fill-opacity="1" fill-rule="nonzero"/></g><g clip-path="url(#48907701e2)"><path fill="#141c4d" d="M 92.105469 84.183594 L 92.105469 74.042969 L 97.179688 74.042969 C 97.902344 74.042969 98.5 74.175781 98.972656 74.441406 C 99.449219 74.707031 99.808594 75.074219 100.046875 75.542969 C 100.289062 76.011719 100.410156 76.5625 100.410156 77.207031 C 100.410156 77.847656 100.285156 78.410156 100.027344 78.898438 C 99.769531 79.386719 99.394531 79.761719 98.90625 80.027344 C 98.417969 80.296875 97.820312 80.429688 97.121094 80.429688 L 93.765625 80.429688 L 93.765625 84.183594 Z M 93.769531 79.007812 L 97.046875 79.007812 C 97.570312 79.007812 97.984375 78.851562 98.285156 78.535156 C 98.585938 78.21875 98.738281 77.78125 98.738281 77.21875 C 98.738281 76.84375 98.671875 76.527344 98.546875 76.265625 C 98.417969 76.003906 98.230469 75.804688 97.980469 75.664062 C 97.734375 75.527344 97.421875 75.457031 97.046875 75.457031 L 93.769531 75.457031 Z M 93.769531 79.007812 " fill-opacity="1" fill-rule="nonzero"/></g><g clip-path="url(#2da9486fd9)"><path fill="#141c4d" d="M 104.195312 84.183594 L 104.195312 75.460938 L 100.828125 75.460938 L 100.828125 74.042969 L 109.253906 74.042969 L 109.253906 75.460938 L 105.855469 75.460938 L 105.855469 84.183594 Z M 104.195312 84.183594 " fill-opacity="1" fill-rule="nonzero"/></g><g clip-path="url(#f81964191e)"><path fill="#141c4d" d="M 110.144531 82.46875 L 111.789062 82.46875 L 111.789062 84.183594 L 110.144531 84.183594 Z M 110.144531 82.46875 " fill-opacity="1" fill-rule="nonzero"/></g><g clip-path="url(#dd8f07ba3d)"><path fill="#141c4d" d="M 117.351562 84.183594 L 117.351562 74.042969 L 122.707031 74.042969 C 123.429688 74.042969 124.027344 74.167969 124.5 74.425781 C 124.976562 74.683594 125.332031 75.039062 125.570312 75.496094 C 125.804688 75.957031 125.925781 76.488281 125.925781 77.101562 C 125.925781 77.78125 125.773438 78.371094 125.464844 78.875 C 125.160156 79.378906 124.722656 79.746094 124.160156 79.984375 L 126.28125 84.183594 L 124.472656 84.183594 L 122.546875 80.265625 L 119.015625 80.265625 L 119.015625 84.183594 Z M 119.015625 78.875 L 122.574219 78.875 C 123.109375 78.875 123.519531 78.714844 123.8125 78.402344 C 124.105469 78.085938 124.25 77.648438 124.25 77.085938 C 124.25 76.742188 124.183594 76.449219 124.058594 76.207031 C 123.929688 75.964844 123.742188 75.777344 123.492188 75.652344 C 123.246094 75.523438 122.941406 75.457031 122.574219 75.457031 L 119.015625 75.457031 Z M 119.015625 78.875 " fill-opacity="1" fill-rule="nonzero"/></g><g clip-path="url(#f35993720e)"><path fill="#141c4d" d="M 128.0625 84.183594 L 128.0625 74.042969 L 135.953125 74.042969 L 135.953125 75.460938 L 129.722656 75.460938 L 129.722656 78.285156 L 135.300781 78.285156 L 135.300781 79.703125 L 129.722656 79.703125 L 129.722656 82.761719 L 136.042969 82.761719 L 136.042969 84.183594 Z M 128.0625 84.183594 " fill-opacity="1" fill-rule="nonzero"/></g><g clip-path="url(#3198236ac3)"><path fill="#141c4d" d="M 138.058594 84.183594 L 138.058594 74.042969 L 139.71875 74.042969 L 139.71875 79.097656 L 144.570312 74.042969 L 146.617188 74.042969 L 142.699219 78.121094 L 146.722656 84.183594 L 144.761719 84.183594 L 141.574219 79.289062 L 139.71875 80.988281 L 139.71875 84.183594 Z M 138.058594 84.183594 " fill-opacity="1" fill-rule="nonzero"/></g><g clip-path="url(#91ee55893d)"><path fill="#141c4d" d="M 146.246094 84.183594 L 150.238281 74.042969 L 152.359375 74.042969 L 156.363281 84.183594 L 154.585938 84.183594 L 153.679688 81.832031 L 148.859375 81.832031 L 147.957031 84.183594 Z M 149.390625 80.425781 L 153.128906 80.425781 L 151.988281 77.457031 C 151.957031 77.367188 151.910156 77.242188 151.851562 77.085938 C 151.792969 76.929688 151.730469 76.757812 151.667969 76.570312 C 151.601562 76.382812 151.539062 76.191406 151.476562 76 C 151.410156 75.808594 151.355469 75.632812 151.304688 75.472656 L 151.214844 75.472656 C 151.15625 75.660156 151.082031 75.882812 150.992188 76.140625 C 150.902344 76.394531 150.816406 76.640625 150.734375 76.878906 C 150.648438 77.117188 150.578125 77.308594 150.519531 77.457031 Z M 149.390625 80.425781 " fill-opacity="1" fill-rule="nonzero"/></g><g clip-path="url(#a171680175)"><path fill="#141c4d" d="M 160.710938 84.183594 L 160.710938 74.042969 L 162.3125 74.042969 L 166.953125 80.398438 C 167.011719 80.457031 167.082031 80.542969 167.15625 80.648438 C 167.230469 80.757812 167.300781 80.867188 167.371094 80.976562 C 167.4375 81.085938 167.488281 81.171875 167.519531 81.242188 L 167.59375 81.242188 L 167.59375 74.042969 L 169.195312 74.042969 L 169.195312 84.183594 L 167.652344 84.183594 L 162.949219 77.75 C 162.871094 77.632812 162.773438 77.484375 162.652344 77.300781 C 162.535156 77.117188 162.445312 76.980469 162.386719 76.878906 L 162.3125 76.878906 L 162.3125 84.183594 Z M 160.710938 84.183594 " fill-opacity="1" fill-rule="nonzero"/></g><g clip-path="url(#f169942a98)"><path fill="#141c4d" d="M 175.765625 84.359375 C 174.894531 84.359375 174.140625 84.21875 173.507812 83.9375 C 172.878906 83.65625 172.390625 83.222656 172.054688 82.628906 C 171.71875 82.039062 171.550781 81.289062 171.550781 80.382812 L 171.550781 74.039062 L 173.210938 74.039062 L 173.210938 80.425781 C 173.210938 81.265625 173.433594 81.894531 173.878906 82.320312 C 174.324219 82.742188 174.953125 82.953125 175.761719 82.953125 C 176.574219 82.953125 177.226562 82.742188 177.683594 82.320312 C 178.144531 81.894531 178.375 81.265625 178.375 80.425781 L 178.375 74.039062 L 180.035156 74.039062 L 180.035156 80.382812 C 180.035156 81.289062 179.863281 82.035156 179.523438 82.628906 C 179.183594 83.21875 178.691406 83.65625 178.054688 83.9375 C 177.417969 84.21875 176.652344 84.359375 175.765625 84.359375 Z M 175.765625 84.359375 " fill-opacity="1" fill-rule="nonzero"/></g><g clip-path="url(#b05244d8f6)"><path fill="#141c4d" d="M 186.164062 84.359375 C 185.609375 84.359375 185.074219 84.304688 184.5625 84.191406 C 184.046875 84.074219 183.589844 83.894531 183.195312 83.644531 C 182.800781 83.390625 182.488281 83.070312 182.261719 82.683594 C 182.035156 82.292969 181.917969 81.828125 181.917969 81.285156 C 181.917969 81.226562 181.921875 81.167969 181.925781 81.113281 C 181.933594 81.058594 181.933594 81.011719 181.933594 80.972656 L 183.59375 80.972656 C 183.59375 81.003906 183.59375 81.046875 183.585938 81.105469 C 183.582031 81.164062 183.582031 81.214844 183.582031 81.253906 C 183.582031 81.617188 183.6875 81.929688 183.90625 82.183594 C 184.125 82.441406 184.429688 82.632812 184.820312 82.761719 C 185.210938 82.890625 185.65625 82.953125 186.160156 82.953125 C 186.4375 82.953125 186.703125 82.9375 186.960938 82.902344 C 187.21875 82.867188 187.453125 82.8125 187.667969 82.738281 C 187.878906 82.664062 188.066406 82.570312 188.222656 82.457031 C 188.382812 82.347656 188.503906 82.210938 188.59375 82.050781 C 188.683594 81.894531 188.726562 81.710938 188.726562 81.507812 C 188.726562 81.191406 188.636719 80.929688 188.453125 80.722656 C 188.269531 80.515625 188.023438 80.34375 187.710938 80.203125 C 187.398438 80.066406 187.050781 79.941406 186.65625 79.835938 C 186.265625 79.726562 185.863281 79.617188 185.449219 79.511719 C 185.035156 79.402344 184.628906 79.273438 184.242188 79.125 C 183.851562 78.976562 183.5 78.796875 183.1875 78.585938 C 182.875 78.375 182.628906 78.109375 182.445312 77.789062 C 182.261719 77.46875 182.171875 77.074219 182.171875 76.613281 C 182.171875 76.148438 182.265625 75.773438 182.453125 75.429688 C 182.640625 75.082031 182.910156 74.796875 183.269531 74.566406 C 183.625 74.332031 184.046875 74.160156 184.542969 74.039062 C 185.039062 73.921875 185.597656 73.863281 186.21875 73.863281 C 186.753906 73.863281 187.257812 73.917969 187.734375 74.03125 C 188.207031 74.148438 188.621094 74.320312 188.980469 74.558594 C 189.335938 74.792969 189.613281 75.09375 189.816406 75.457031 C 190.019531 75.824219 190.121094 76.257812 190.121094 76.757812 L 190.121094 76.9375 L 188.476562 76.9375 L 188.476562 76.746094 C 188.476562 76.429688 188.382812 76.164062 188.195312 75.945312 C 188.007812 75.730469 187.742188 75.5625 187.40625 75.445312 C 187.070312 75.324219 186.679688 75.265625 186.234375 75.265625 C 185.710938 75.265625 185.269531 75.320312 184.914062 75.421875 C 184.558594 75.527344 184.289062 75.671875 184.105469 75.851562 C 183.925781 76.035156 183.832031 76.253906 183.832031 76.511719 C 183.832031 76.796875 183.925781 77.03125 184.113281 77.210938 C 184.300781 77.394531 184.550781 77.550781 184.863281 77.679688 C 185.175781 77.808594 185.527344 77.921875 185.917969 78.027344 C 186.308594 78.128906 186.707031 78.238281 187.117188 78.351562 C 187.527344 78.464844 187.929688 78.59375 188.320312 78.742188 C 188.710938 78.890625 189.0625 79.074219 189.375 79.289062 C 189.683594 79.507812 189.933594 79.773438 190.121094 80.09375 C 190.308594 80.414062 190.402344 80.808594 190.402344 81.269531 C 190.402344 82 190.222656 82.59375 189.855469 83.050781 C 189.488281 83.511719 188.988281 83.84375 188.351562 84.050781 C 187.710938 84.257812 186.984375 84.359375 186.164062 84.359375 Z M 186.164062 84.359375 " fill-opacity="1" fill-rule="nonzero"/></g><g clip-path="url(#0bfede264e)"><path fill="#141c4d" d="M 191.222656 84.183594 L 195.210938 74.042969 L 197.332031 74.042969 L 201.335938 84.183594 L 199.558594 84.183594 L 198.652344 81.832031 L 193.832031 81.832031 L 192.929688 84.183594 Z M 194.363281 80.425781 L 198.101562 80.425781 L 196.960938 77.457031 C 196.929688 77.367188 196.886719 77.242188 196.824219 77.085938 C 196.765625 76.929688 196.703125 76.757812 196.640625 76.570312 C 196.574219 76.382812 196.511719 76.191406 196.449219 76 C 196.382812 75.808594 196.328125 75.632812 196.277344 75.472656 L 196.1875 75.472656 C 196.128906 75.660156 196.054688 75.882812 195.964844 76.140625 C 195.878906 76.394531 195.789062 76.640625 195.707031 76.878906 C 195.621094 77.117188 195.550781 77.308594 195.492188 77.457031 Z M 194.363281 80.425781 " fill-opacity="1" fill-rule="nonzero"/></g><g clip-path="url(#6526af2e67)"><path fill="#141c4d" d="M 202.640625 84.183594 L 202.640625 74.042969 L 207.996094 74.042969 C 208.71875 74.042969 209.316406 74.167969 209.792969 74.425781 C 210.265625 74.683594 210.621094 75.039062 210.859375 75.496094 C 211.097656 75.957031 211.214844 76.488281 211.214844 77.101562 C 211.214844 77.78125 211.0625 78.371094 210.757812 78.875 C 210.449219 79.378906 210.015625 79.746094 209.453125 79.984375 L 211.574219 84.183594 L 209.761719 84.183594 L 207.835938 80.265625 L 204.304688 80.265625 L 204.304688 84.183594 Z M 204.304688 78.875 L 207.863281 78.875 C 208.398438 78.875 208.808594 78.714844 209.101562 78.402344 C 209.394531 78.085938 209.539062 77.648438 209.539062 77.085938 C 209.539062 76.742188 209.472656 76.449219 209.347656 76.207031 C 209.21875 75.964844 209.03125 75.777344 208.78125 75.652344 C 208.535156 75.523438 208.226562 75.457031 207.863281 75.457031 L 204.304688 75.457031 Z M 204.304688 78.875 " fill-opacity="1" fill-rule="nonzero"/></g><g clip-path="url(#243944d12d)"><path fill="#141c4d" d="M 212.238281 84.183594 L 216.226562 74.042969 L 218.347656 74.042969 L 222.355469 84.183594 L 220.574219 84.183594 L 219.671875 81.832031 L 214.851562 81.832031 L 213.945312 84.183594 Z M 215.382812 80.425781 L 219.121094 80.425781 L 217.976562 77.457031 C 217.949219 77.367188 217.902344 77.242188 217.84375 77.085938 C 217.785156 76.929688 217.722656 76.757812 217.660156 76.570312 C 217.59375 76.382812 217.53125 76.191406 217.464844 76 C 217.402344 75.808594 217.34375 75.632812 217.296875 75.472656 L 217.207031 75.472656 C 217.148438 75.660156 217.074219 75.882812 216.984375 76.140625 C 216.894531 76.394531 216.808594 76.640625 216.726562 76.878906 C 216.640625 77.117188 216.570312 77.308594 216.507812 77.457031 Z M 215.382812 80.425781 " fill-opacity="1" fill-rule="nonzero"/></g><g clip-path="url(#02a5e206a0)"><path fill="#141c4d" d="M 225.410156 84.183594 L 225.410156 80.011719 L 221.449219 74.042969 L 223.347656 74.042969 L 226.253906 78.535156 L 226.328125 78.535156 L 229.207031 74.042969 L 231.03125 74.042969 L 227.070312 80.011719 L 227.070312 84.183594 Z M 225.410156 84.183594 " fill-opacity="1" fill-rule="nonzero"/></g><g clip-path="url(#801adb015c)"><path fill="#141c4d" d="M 230.113281 84.183594 L 234.101562 74.042969 L 236.222656 74.042969 L 240.230469 84.183594 L 238.449219 84.183594 L 237.542969 81.832031 L 232.722656 81.832031 L 231.820312 84.183594 Z M 233.257812 80.425781 L 236.996094 80.425781 L 235.851562 77.457031 C 235.824219 77.367188 235.777344 77.242188 235.71875 77.085938 C 235.660156 76.929688 235.597656 76.757812 235.535156 76.570312 C 235.46875 76.382812 235.40625 76.191406 235.339844 76 C 235.277344 75.808594 235.21875 75.632812 235.171875 75.472656 L 235.082031 75.472656 C 235.023438 75.660156 234.949219 75.882812 234.859375 76.140625 C 234.769531 76.394531 234.683594 76.640625 234.597656 76.878906 C 234.515625 77.117188 234.441406 77.308594 234.382812 77.457031 Z M 233.257812 80.425781 " fill-opacity="1" fill-rule="nonzero"/></g><g clip-path="url(#778c12a793)"><path fill="#141c4d" d="M 244.574219 84.183594 L 244.574219 74.042969 L 246.234375 74.042969 L 246.234375 84.183594 Z M 244.574219 84.183594 " fill-opacity="1" fill-rule="nonzero"/></g><g clip-path="url(#35e99fda0e)"><path fill="#141c4d" d="M 248.636719 84.183594 L 248.636719 74.042969 L 250.238281 74.042969 L 254.882812 80.398438 C 254.941406 80.457031 255.007812 80.542969 255.082031 80.648438 C 255.15625 80.757812 255.230469 80.867188 255.300781 80.976562 C 255.367188 81.085938 255.417969 81.171875 255.445312 81.242188 L 255.519531 81.242188 L 255.519531 74.042969 L 257.125 74.042969 L 257.125 84.183594 L 255.582031 84.183594 L 250.878906 77.75 C 250.796875 77.632812 250.699219 77.484375 250.582031 77.300781 C 250.460938 77.117188 250.371094 76.980469 250.3125 76.878906 L 250.238281 76.878906 L 250.238281 84.183594 Z M 248.636719 84.183594 " fill-opacity="1" fill-rule="nonzero"/></g><g clip-path="url(#f70787925c)"><path fill="#141c4d" d="M 259.523438 84.183594 L 259.523438 74.042969 L 266.792969 74.042969 L 266.792969 75.460938 L 261.1875 75.460938 L 261.1875 78.460938 L 266.257812 78.460938 L 266.257812 79.867188 L 261.1875 79.867188 L 261.1875 84.183594 Z M 259.523438 84.183594 " fill-opacity="1" fill-rule="nonzero"/></g><g clip-path="url(#d742b4b1c7)"><path fill="#141c4d" d="M 268.585938 84.183594 L 268.585938 74.042969 L 273.941406 74.042969 C 274.664062 74.042969 275.261719 74.167969 275.738281 74.425781 C 276.210938 74.683594 276.570312 75.039062 276.804688 75.496094 C 277.042969 75.957031 277.160156 76.488281 277.160156 77.101562 C 277.160156 77.78125 277.007812 78.371094 276.703125 78.875 C 276.394531 79.378906 275.960938 79.746094 275.398438 79.984375 L 277.519531 84.183594 L 275.707031 84.183594 L 273.78125 80.265625 L 270.25 80.265625 L 270.25 84.183594 Z M 270.25 78.875 L 273.808594 78.875 C 274.34375 78.875 274.757812 78.714844 275.046875 78.402344 C 275.339844 78.085938 275.484375 77.648438 275.484375 77.085938 C 275.484375 76.742188 275.421875 76.449219 275.292969 76.207031 C 275.164062 75.964844 274.976562 75.777344 274.730469 75.652344 C 274.480469 75.523438 274.175781 75.457031 273.808594 75.457031 L 270.25 75.457031 Z M 270.25 78.875 " fill-opacity="1" fill-rule="nonzero"/></g><g clip-path="url(#416a30453c)"><path fill="#141c4d" d="M 278.183594 84.183594 L 282.175781 74.042969 L 284.296875 74.042969 L 288.300781 84.183594 L 286.519531 84.183594 L 285.617188 81.832031 L 280.796875 81.832031 L 279.890625 84.183594 Z M 281.328125 80.425781 L 285.066406 80.425781 L 283.925781 77.457031 C 283.894531 77.367188 283.851562 77.242188 283.792969 77.085938 C 283.734375 76.929688 283.667969 76.757812 283.605469 76.570312 C 283.542969 76.382812 283.476562 76.191406 283.414062 76 C 283.347656 75.808594 283.292969 75.632812 283.242188 75.472656 L 283.152344 75.472656 C 283.09375 75.660156 283.019531 75.882812 282.929688 76.140625 C 282.84375 76.394531 282.757812 76.640625 282.671875 76.878906 C 282.585938 77.117188 282.515625 77.308594 282.457031 77.457031 Z M 281.328125 80.425781 " fill-opacity="1" fill-rule="nonzero"/></g><g clip-path="url(#1978969b69)"><path fill="#141c4d" d="M 293.804688 84.359375 C 292.765625 84.359375 291.882812 84.175781 291.15625 83.804688 C 290.429688 83.4375 289.871094 82.863281 289.488281 82.082031 C 289.101562 81.304688 288.910156 80.3125 288.910156 79.109375 C 288.910156 77.335938 289.339844 76.019531 290.207031 75.15625 C 291.070312 74.296875 292.277344 73.863281 293.816406 73.863281 C 294.667969 73.863281 295.429688 74.007812 296.109375 74.292969 C 296.785156 74.578125 297.320312 75.003906 297.710938 75.570312 C 298.101562 76.136719 298.296875 76.859375 298.296875 77.738281 L 296.605469 77.738281 C 296.605469 77.195312 296.492188 76.742188 296.265625 76.378906 C 296.039062 76.011719 295.714844 75.738281 295.292969 75.550781 C 294.871094 75.363281 294.386719 75.269531 293.832031 75.269531 C 293.140625 75.269531 292.554688 75.402344 292.074219 75.675781 C 291.59375 75.945312 291.234375 76.351562 290.992188 76.894531 C 290.75 77.433594 290.628906 78.125 290.628906 78.964844 L 290.628906 79.289062 C 290.628906 80.125 290.75 80.816406 290.992188 81.359375 C 291.234375 81.898438 291.59375 82.300781 292.066406 82.5625 C 292.542969 82.824219 293.128906 82.953125 293.832031 82.953125 C 294.40625 82.953125 294.90625 82.863281 295.332031 82.683594 C 295.753906 82.5 296.085938 82.226562 296.316406 81.859375 C 296.546875 81.496094 296.664062 81.042969 296.664062 80.5 L 298.296875 80.5 C 298.296875 81.378906 298.101562 82.101562 297.710938 82.671875 C 297.320312 83.246094 296.785156 83.667969 296.109375 83.945312 C 295.433594 84.222656 294.664062 84.359375 293.804688 84.359375 Z M 293.804688 84.359375 " fill-opacity="1" fill-rule="nonzero"/></g><g clip-path="url(#8945336252)"><path fill="#141c4d" d="M 304.765625 84.359375 C 303.714844 84.359375 302.808594 84.167969 302.042969 83.785156 C 301.277344 83.398438 300.6875 82.816406 300.277344 82.039062 C 299.867188 81.261719 299.664062 80.285156 299.664062 79.109375 C 299.664062 77.9375 299.867188 76.949219 300.277344 76.175781 C 300.6875 75.402344 301.277344 74.824219 302.042969 74.441406 C 302.808594 74.054688 303.71875 73.863281 304.765625 73.863281 C 305.8125 73.863281 306.746094 74.054688 307.507812 74.441406 C 308.269531 74.824219 308.855469 75.402344 309.269531 76.175781 C 309.679688 76.953125 309.882812 77.929688 309.882812 79.109375 C 309.882812 80.292969 309.679688 81.261719 309.269531 82.039062 C 308.859375 82.816406 308.269531 83.398438 307.507812 83.785156 C 306.75 84.167969 305.832031 84.359375 304.765625 84.359375 Z M 304.765625 82.953125 C 305.308594 82.953125 305.789062 82.878906 306.210938 82.734375 C 306.632812 82.585938 306.988281 82.359375 307.28125 82.054688 C 307.570312 81.746094 307.792969 81.363281 307.945312 80.902344 C 308.101562 80.4375 308.175781 79.898438 308.175781 79.289062 L 308.175781 78.964844 C 308.175781 78.335938 308.101562 77.785156 307.945312 77.324219 C 307.792969 76.863281 307.570312 76.476562 307.28125 76.171875 C 306.988281 75.867188 306.632812 75.640625 306.210938 75.492188 C 305.789062 75.34375 305.308594 75.269531 304.765625 75.269531 C 304.21875 75.269531 303.753906 75.34375 303.335938 75.492188 C 302.914062 75.640625 302.558594 75.867188 302.265625 76.171875 C 301.976562 76.476562 301.753906 76.863281 301.605469 77.324219 C 301.457031 77.789062 301.382812 78.335938 301.382812 78.964844 L 301.382812 79.289062 C 301.382812 79.902344 301.457031 80.4375 301.605469 80.902344 C 301.753906 81.363281 301.972656 81.746094 302.265625 82.054688 C 302.558594 82.359375 302.914062 82.585938 303.335938 82.734375 C 303.753906 82.878906 304.230469 82.953125 304.765625 82.953125 Z M 304.765625 82.953125 " fill-opacity="1" fill-rule="nonzero"/></g><g clip-path="url(#1d49582f25)"><path fill="#141c4d" d="M 311.796875 84.183594 L 311.796875 74.042969 L 313.398438 74.042969 L 318.042969 80.398438 C 318.101562 80.457031 318.167969 80.542969 318.242188 80.648438 C 318.316406 80.757812 318.386719 80.867188 318.457031 80.976562 C 318.527344 81.085938 318.578125 81.171875 318.605469 81.242188 L 318.679688 81.242188 L 318.679688 74.042969 L 320.28125 74.042969 L 320.28125 84.183594 L 318.738281 84.183594 L 314.039062 77.75 C 313.957031 77.632812 313.859375 77.484375 313.742188 77.300781 C 313.621094 77.117188 313.53125 76.980469 313.472656 76.878906 L 313.398438 76.878906 L 313.398438 84.183594 Z M 311.796875 84.183594 " fill-opacity="1" fill-rule="nonzero"/></g></svg>